<svg id="Basics_Wireframe_Kit_1.0" data-name="Basics Wireframe Kit 1.0" xmlns="http://www.w3.org/2000/svg" xmlns:xlink="http://www.w3.org/1999/xlink" viewBox="0 0 1520 1140.22"><defs><style>.cls-1,.cls-12,.cls-14,.cls-3{fill:#e0e7e9;}.cls-2{fill:#6c7a89;}.cls-3{font-size:20px;}.cls-11,.cls-12,.cls-13,.cls-14,.cls-22,.cls-24,.cls-26,.cls-3,.cls-5,.cls-9{font-family:Museo Sans;}.cls-4{opacity:0.12;}.cls-13,.cls-14,.cls-22,.cls-24,.cls-26,.cls-5{font-size:18px;}.cls-5,.cls-7,.cls-9{fill:#354649;}.cls-24,.cls-6{fill:#00dfd9;}.Graphic-Style-2,.cls-10,.cls-15,.cls-16,.cls-17,.cls-19,.cls-23,.cls-25,.cls-27{fill:none;stroke-miterlimit:10;}.Graphic-Style-2,.cls-15{stroke:#e0e7e9;}.Graphic-Style-2,.cls-10,.cls-19,.cls-23,.cls-25,.cls-27{stroke-width:3px;}.cls-11,.cls-13,.cls-8{fill:#fff;}.cls-11,.cls-12,.cls-9{font-size:24px;}.cls-10{stroke:#354649;}.cls-15,.cls-16,.cls-17{stroke-linecap:round;stroke-width:4px;}.cls-16{stroke:#6c7a89;}.cls-17,.cls-25{stroke:#00dfd9;}.cls-18,.cls-22{fill:#e65d7b;}.cls-19{stroke:#fff;}.cls-20{letter-spacing:-1px;}.cls-21,.cls-26{fill:#ffce3e;}.cls-23{stroke:#e65d7b;}.cls-27{stroke:#ffce3e;}.cls-28{fill:#e65c7b;}</style></defs><title>Basics Wireframe Kit 1.0 - By Jordan Blakey</title><g id="Profile_Pictures" data-name="Profile Pictures"><path class="cls-1" d="M150.24,940.89a50,50,0,0,0-28.62,91,30,30,0,0,1,57.24,0A50,50,0,0,0,150.24,940.89Zm0,60a20,20,0,1,1,20-20A20,20,0,0,1,150.24,1000.89Z"/><circle class="cls-2" cx="150.24" cy="980.89" r="20"/><path class="cls-2" d="M150.24,1010.89a30,30,0,0,0-28.62,21,50,50,0,0,0,57.24,0A30,30,0,0,0,150.24,1010.89Z"/><path class="cls-1" d="M260.24,940.89a40,40,0,0,0-22.9,72.79,24,24,0,0,1,45.79,0A40,40,0,0,0,260.24,940.89Zm0,48a16,16,0,1,1,16-16A16,16,0,0,1,260.24,988.89Z"/><circle class="cls-2" cx="260.24" cy="972.89" r="16"/><path class="cls-2" d="M260.24,996.89a24,24,0,0,0-22.9,16.79,40,40,0,0,0,45.79,0A24,24,0,0,0,260.24,996.89Z"/><path class="cls-1" d="M350.24,940.89a30,30,0,0,0-17.17,54.59,18,18,0,0,1,34.34,0A30,30,0,0,0,350.24,940.89Zm0,36a12,12,0,1,1,12-12A12,12,0,0,1,350.24,976.89Z"/><circle class="cls-2" cx="350.24" cy="964.89" r="12"/><path class="cls-2" d="M350.24,982.89a18,18,0,0,0-17.17,12.59,30,30,0,0,0,34.34,0A18,18,0,0,0,350.24,982.89Z"/><path class="cls-1" d="M420.24,940.89a20,20,0,0,0-11.44,36.39,12,12,0,0,1,22.89,0A20,20,0,0,0,420.24,940.89Zm0,24a8,8,0,1,1,8-8A8,8,0,0,1,420.24,964.89Z"/><circle class="cls-2" cx="420.24" cy="956.89" r="8"/><path class="cls-2" d="M420.24,968.89a12,12,0,0,0-11.44,8.39,19.94,19.94,0,0,0,22.89,0A12,12,0,0,0,420.24,968.89Z"/><path class="cls-1" d="M470.24,940.89a10,10,0,0,0-5.72,18.19,6,6,0,0,1,11.44,0A10,10,0,0,0,470.24,940.89Zm0,12a4,4,0,1,1,4-4A4,4,0,0,1,470.24,952.89Z"/><circle class="cls-2" cx="470.24" cy="948.89" r="4"/><path class="cls-2" d="M470.24,954.89a6,6,0,0,0-5.72,4.19,10,10,0,0,0,11.44,0A6,6,0,0,0,470.24,954.89Z"/><path class="cls-1" d="M550.24,940.89a50,50,0,0,0-28.62,91,30,30,0,0,1,57.24,0A50,50,0,0,0,550.24,940.89Zm20,60h-40v-20a20,20,0,0,1,40,0v20Z"/><path class="cls-2" d="M550.24,960.89a20,20,0,0,0-20,20v20h40v-20A20,20,0,0,0,550.24,960.89Z"/><path class="cls-2" d="M550.24,1010.89a30,30,0,0,0-28.62,21,50,50,0,0,0,57.24,0A30,30,0,0,0,550.24,1010.89Z"/><path class="cls-1" d="M660.24,940.89a40,40,0,0,0-22.9,72.79,24,24,0,0,1,45.79,0A40,40,0,0,0,660.24,940.89Zm16,48h-32v-16a16,16,0,0,1,32,0v16Z"/><path class="cls-2" d="M660.24,956.89a16,16,0,0,0-16,16v16h32v-16A16,16,0,0,0,660.24,956.89Z"/><path class="cls-2" d="M660.24,996.89a24,24,0,0,0-22.9,16.79,40,40,0,0,0,45.79,0A24,24,0,0,0,660.24,996.89Z"/><path class="cls-1" d="M750.24,940.89a30,30,0,0,0-17.17,54.59,18,18,0,0,1,34.34,0A30,30,0,0,0,750.24,940.89Zm12,36h-24v-12a12,12,0,0,1,24,0v12Z"/><path class="cls-2" d="M750.24,952.89a12,12,0,0,0-12,12v12h24v-12A12,12,0,0,0,750.24,952.89Z"/><path class="cls-2" d="M750.24,982.89a18,18,0,0,0-17.17,12.59,30,30,0,0,0,34.34,0A18,18,0,0,0,750.24,982.89Z"/><path class="cls-1" d="M820.24,940.89a20,20,0,0,0-11.44,36.39,12,12,0,0,1,22.89,0A20,20,0,0,0,820.24,940.89Zm8,24h-16v-8a8,8,0,0,1,16,0v8Z"/><path class="cls-2" d="M820.24,948.89a8,8,0,0,0-8,8v8h16v-8A8,8,0,0,0,820.24,948.89Z"/><path class="cls-2" d="M820.24,968.89a12,12,0,0,0-11.44,8.39,19.94,19.94,0,0,0,22.89,0A12,12,0,0,0,820.24,968.89Z"/><path class="cls-1" d="M870.24,940.89a10,10,0,0,0-5.72,18.19,6,6,0,0,1,11.44,0A10,10,0,0,0,870.24,940.89Zm4,12h-8v-4a4,4,0,0,1,8,0v4Z"/><path class="cls-2" d="M870.24,944.89a4,4,0,0,0-4,4v4h8v-4A4,4,0,0,0,870.24,944.89Z"/><path class="cls-2" d="M870.24,954.89a6,6,0,0,0-5.72,4.19,10,10,0,0,0,11.44,0A6,6,0,0,0,870.24,954.89Z"/></g><text class="cls-3" transform="translate(876.54 1093.07)">Basics Wi<tspan x="86.16" y="0">r</tspan><tspan x="93.6" y="0">eframe Kit 1</tspan><tspan x="203.52" y="0">.</tspan><tspan x="208.26" y="0">0 by jordan@jordanbla</tspan><tspan x="416.68" y="0">k</tspan><tspan x="427.04" y="0">e</tspan><tspan x="438.14" y="0">y</tspan><tspan x="447.92" y="0">.com</tspan></text><image class="cls-4" width="88" height="31" transform="translate(1392.24 1069.89)" xlink:href="C:\Users\poshs\Desktop\88px-CC0_button.svg.png"/><g id="Speech_Bubbles" data-name="Speech Bubbles"><rect class="cls-1" x="100.24" y="840.89" width="200" height="40" rx="20" ry="20"/><polygon class="cls-1" points="140.24 880.89 120.24 880.89 120.24 900.89 140.24 880.89"/><text class="cls-5" transform="translate(120.24 866.65)">Withering insult!</text><rect class="cls-6" x="320.24" y="840.89" width="200" height="40" rx="20" ry="20" transform="translate(840.47 1721.78) rotate(-180)"/><polygon class="cls-6" points="480.24 880.89 500.24 880.89 500.24 900.89 480.24 880.89"/><text class="cls-5" transform="translate(340.24 866.65)">Searing comeback!</text></g><g id="Directional_Buttons" data-name="Directional Buttons"><circle class="Graphic-Style-2" cx="980.24" cy="781.89" r="20"/><path class="cls-7" d="M983.7,779.89l-3.46-6-6.93,12h13.86Z"/><circle class="Graphic-Style-2" cx="1040.24" cy="781.89" r="20"/><path class="cls-7" d="M1036.77,783.89l3.46,6,6.93-12h-13.86Z"/><circle class="Graphic-Style-2" cx="1100.24" cy="781.89" r="20"/><path class="cls-7" d="M1098.24,778.42l-6,3.46,12,6.93V775Z"/><circle class="Graphic-Style-2" cx="1160.24" cy="781.89" r="20"/><path class="cls-7" d="M1162.24,785.35l6-3.46-12-6.93v13.86Z"/></g><g id="View_Buttons" data-name="View Buttons"><rect class="cls-7" x="112.24" y="772.89" width="3.2" height="3.2"/><rect class="cls-7" x="118.64" y="772.89" width="9.6" height="3.2"/><rect class="cls-7" x="112.24" y="779.29" width="3.2" height="3.2"/><rect class="cls-7" x="118.64" y="779.29" width="9.6" height="3.2"/><rect class="cls-7" x="112.24" y="785.69" width="3.2" height="3.2"/><rect class="cls-7" x="118.64" y="785.69" width="9.6" height="3.2"/><circle class="Graphic-Style-2" cx="120.24" cy="780.89" r="20"/><rect class="cls-7" x="172.24" y="772.89" width="16" height="3.2"/><rect class="cls-7" x="172.24" y="779.29" width="16" height="3.2"/><rect class="cls-7" x="172.24" y="785.69" width="16" height="3.2"/><circle class="Graphic-Style-2" cx="180.24" cy="780.89" r="20"/><rect class="cls-7" x="292.24" y="772.89" width="3.2" height="3.2"/><rect class="cls-7" x="292.24" y="779.29" width="3.2" height="3.2"/><rect class="cls-7" x="292.24" y="785.69" width="3.2" height="3.2"/><rect class="cls-7" x="298.64" y="772.89" width="3.2" height="3.2"/><rect class="cls-7" x="298.64" y="779.29" width="3.2" height="3.2"/><rect class="cls-7" x="298.64" y="785.69" width="3.2" height="3.2"/><rect class="cls-7" x="305.04" y="772.89" width="3.2" height="3.2"/><rect class="cls-7" x="305.04" y="779.29" width="3.2" height="3.2"/><rect class="cls-7" x="305.04" y="785.69" width="3.2" height="3.2"/><circle class="Graphic-Style-2" cx="300.24" cy="780.89" r="20"/><circle class="cls-6" cx="240.24" cy="780.89" r="20"/><rect class="cls-8" x="232.24" y="772.89" width="6.4" height="6.4"/><rect class="cls-8" x="241.84" y="772.89" width="6.4" height="6.4"/><rect class="cls-8" x="232.24" y="782.49" width="6.4" height="6.4"/><rect class="cls-8" x="241.84" y="782.49" width="6.4" height="6.4"/></g><g id="Arithmetic_Operators" data-name="Arithmetic Operators"><circle class="Graphic-Style-2" cx="780.24" cy="781.89" r="20"/><rect class="cls-7" x="772.24" y="780.29" width="16" height="3.2"/><circle class="Graphic-Style-2" cx="720.24" cy="781.89" r="20"/><rect class="cls-7" x="712.24" y="780.29" width="16" height="3.2"/><rect class="cls-7" x="712.24" y="780.29" width="16" height="3.2" transform="translate(1502.12 61.65) rotate(90)"/><circle class="Graphic-Style-2" cx="840.24" cy="780.89" r="20"/><rect class="cls-7" x="832.24" y="779.29" width="16" height="3.2" transform="translate(798.27 -365.42) rotate(45)"/><rect class="cls-7" x="832.24" y="779.29" width="16" height="3.2" transform="translate(1986.54 738.92) rotate(135)"/><circle class="Graphic-Style-2" cx="900.24" cy="780.89" r="20"/><rect class="cls-7" x="892.24" y="779.29" width="16" height="3.2"/><rect class="cls-7" x="898.64" y="785.69" width="3.2" height="3.2"/><rect class="cls-7" x="898.64" y="772.89" width="3.2" height="3.2"/></g><g id="System_Window_Buttons" data-name="System &amp; Window Buttons"><circle class="Graphic-Style-2" cx="440.24" cy="780.89" r="20"/><text class="cls-9" transform="translate(434.87 788.89)">?</text><circle class="Graphic-Style-2" cx="520.24" cy="780.89" r="20"/><rect class="cls-7" x="512.24" y="779.29" width="16" height="3.2"/><circle class="Graphic-Style-2" cx="640.24" cy="780.89" r="20"/><rect class="cls-7" x="632.24" y="779.29" width="16" height="3.2" transform="translate(739.69 -224) rotate(45)"/><rect class="cls-7" x="632.24" y="779.29" width="16" height="3.2" transform="translate(1645.12 880.34) rotate(135)"/><circle class="Graphic-Style-2" cx="380.24" cy="780.89" r="20"/><path class="cls-7" d="M387.88,783.28L388,783a5.35,5.35,0,0,0,.15-0.66c0-.25.08-0.49,0.1-0.68v-0.31l2.27,0.12,0,0.4c0,0.24-.08.55-0.12,0.87a7.41,7.41,0,0,1-.19.85l-0.1.39Z"/><path class="cls-7" d="M385.82,786.62a2.1,2.1,0,0,0,.22-0.22c0.12-.14.3-0.31,0.45-0.51l0.41-.55,0.16-.27,1.93,1.19-0.21.34-0.52.7c-0.19.25-.42,0.48-0.58,0.66a3.2,3.2,0,0,1-.28.29Z"/><path class="cls-7" d="M382,788.7l0.3-.08a4,4,0,0,0,.65-0.2,4.66,4.66,0,0,0,.63-0.26l0.28-.13,1,2-0.36.17a6.62,6.62,0,0,1-.81.33,5.78,5.78,0,0,1-.84.26l-0.39.1Z"/><path class="cls-7" d="M378.06,788.59l0.3,0.08a4.28,4.28,0,0,0,.67.13,4,4,0,0,0,.68.07l0.31,0L380,791.15l-0.4,0a5.82,5.82,0,0,1-.87-0.09,6.14,6.14,0,0,1-.86-0.17l-0.39-.1Z"/><path class="cls-7" d="M374.35,786.31l0.21,0.23,0.51,0.46c0.19,0.16.4,0.3,0.54,0.42a1.89,1.89,0,0,0,.26.18l-1.24,1.9a2.9,2.9,0,0,1-.33-0.23c-0.19-.15-0.45-0.33-0.69-0.53l-0.65-.59-0.27-.29Z"/><path class="cls-7" d="M372.48,782.85a6.92,6.92,0,0,0,.3.94,5.19,5.19,0,0,0,.28.62l0.13,0.28-2,1.08-0.17-.36a7.22,7.22,0,0,1-.36-0.8,9.21,9.21,0,0,1-.39-1.21Z"/><path class="cls-7" d="M372.59,778.5l-0.08.3a5.35,5.35,0,0,0-.15.66c0,0.25-.08.49-0.1,0.68v0.31l-2.27-.12,0-.4c0-.24.08-0.55,0.12-0.87a7.41,7.41,0,0,1,.19-0.85l0.1-.39Z"/><path class="cls-7" d="M374.65,775.15a2.1,2.1,0,0,0-.22.22c-0.12.14-.3,0.31-0.45,0.51l-0.41.55-0.16.27-1.93-1.19,0.21-.34,0.52-.7c0.19-.25.42-0.48,0.58-0.66a3.2,3.2,0,0,1,.28-0.29Z"/><path class="cls-7" d="M378.48,773.08l-0.3.08a4,4,0,0,0-.65.2,4.66,4.66,0,0,0-.63.26l-0.28.13-1-2,0.36-.17a6.62,6.62,0,0,1,.81-0.33,5.78,5.78,0,0,1,.84-0.26l0.39-.1Z"/><path class="cls-7" d="M382.41,773.19l-0.3-.08a4.28,4.28,0,0,0-.67-0.13,4,4,0,0,0-.68-0.07l-0.31,0,0.06-2.27,0.4,0a5.82,5.82,0,0,1,.87.09,6.14,6.14,0,0,1,.86.17L383,771Z"/><path class="cls-7" d="M386.12,775.47l-0.21-.23-0.51-.46c-0.19-.16-0.4-0.3-0.54-0.42a1.89,1.89,0,0,0-.26-0.18l1.24-1.9a2.9,2.9,0,0,1,.33.23c0.19,0.15.45,0.33,0.69,0.53l0.65,0.59,0.27,0.29Z"/><path class="cls-7" d="M388,778.92a6.92,6.92,0,0,0-.3-0.94,5.19,5.19,0,0,0-.28-0.62l-0.13-.28,2-1.08,0.17,0.36a7.22,7.22,0,0,1,.36.8,9.21,9.21,0,0,1,.39,1.21Z"/><circle class="cls-10" cx="380.24" cy="780.89" r="6.93"/><circle class="Graphic-Style-2" cx="580.24" cy="780.89" r="20"/><path class="cls-7" d="M582.4,778.72v4.33h-4.33v-4.33h4.33m4-4H574.07v12.33H586.4V774.72h0Z"/></g><g id="Pagination"><circle class="Graphic-Style-2" cx="184.57" cy="720.89" r="20"/><text class="cls-9" transform="translate(178.7 728.89)">1</text><circle class="cls-6" cx="244.57" cy="720.89" r="20"/><text class="cls-11" transform="translate(237.71 728.89)">2</text><circle class="Graphic-Style-2" cx="304.57" cy="720.89" r="20"/><text class="cls-9" transform="translate(297.77 728.89)">3</text><circle class="Graphic-Style-2" cx="364.57" cy="720.89" r="20"/><text class="cls-9" transform="translate(357.3 728.89)">4</text><path class="cls-7" d="M122.57,717.42l-6,3.46,12,6.93V714Z"/><path class="cls-7" d="M426.57,724.35l6-3.46-12-6.93v13.86Z"/><circle class="Graphic-Style-2" cx="604.57" cy="720.89" r="20"/><text class="cls-9" transform="translate(598.7 728.89)">1</text><text class="cls-9" transform="translate(500.14 728.89)">P<tspan x="14.57" y="0">r</tspan><tspan x="23.5" y="0">ev</tspan></text><circle class="cls-6" cx="664.57" cy="720.89" r="20"/><text class="cls-11" transform="translate(657.71 728.89)">2</text><circle class="Graphic-Style-2" cx="724.57" cy="720.89" r="20"/><text class="cls-9" transform="translate(717.77 728.89)">3</text><circle class="Graphic-Style-2" cx="784.57" cy="720.89" r="20"/><text class="cls-9" transform="translate(777.3 728.89)">4</text><text class="cls-9" transform="translate(838.43 728.89)">Next</text></g><g id="Progress_Bars" data-name="Progress Bars"><path class="cls-1" d="M970.24,623.89a7,7,0,0,1,0,14h-180a7,7,0,0,1,0-14h180m0-3h-180a10,10,0,0,0,0,20h180a10,10,0,0,0,0-20h0Z"/><rect class="cls-1" x="780.24" y="620.89" width="132.5" height="20" rx="10" ry="10"/><path class="cls-1" d="M1194.57,623.89a7,7,0,0,1,0,14H1010.24a7,7,0,0,1,0-14h184.33m0-3H1010.24a10,10,0,0,0,0,20h184.33a10,10,0,0,0,0-20h0Z"/><rect class="cls-2" x="1000.24" y="620.89" width="132.5" height="20" rx="10" ry="10"/><path class="cls-1" d="M1414.57,623.89a7,7,0,0,1,0,14h-180a7,7,0,0,1,0-14h180m0-3h-180a10,10,0,0,0,0,20h180a10,10,0,0,0,0-20h0Z"/><rect class="cls-6" x="1224.57" y="620.89" width="132.5" height="20" rx="10" ry="10"/><path class="cls-1" d="M280.24,623.89a17,17,0,0,1,0,34h-160a17,17,0,1,1,0-34h160m0-3h-160a20,20,0,1,0,0,40h160a20,20,0,0,0,0-40h0Z"/><rect class="cls-1" x="100.24" y="620.89" width="100" height="40" rx="20" ry="20"/><text class="cls-9" transform="translate(176.36 649.89)">50%</text><path class="cls-1" d="M500.24,623.89a17,17,0,0,1,0,34h-160a17,17,0,0,1,0-34h160m0-3h-160a20,20,0,0,0,0,40h160a20,20,0,0,0,0-40h0Z"/><rect class="cls-2" x="320.24" y="620.89" width="100" height="40" rx="20" ry="20"/><text class="cls-12" transform="translate(396.36 649.89)">50%</text><path class="cls-1" d="M720.24,623.89a17,17,0,0,1,0,34h-160a17,17,0,0,1,0-34h160m0-3h-160a20,20,0,0,0,0,40h160a20,20,0,0,0,0-40h0Z"/><rect class="cls-6" x="540.24" y="620.89" width="100" height="40" rx="20" ry="20"/><text class="cls-9" transform="translate(616.36 649.89)">50%</text></g><g id="Search"><rect class="cls-6" x="1020.24" y="560.89" width="80" height="40" rx="20" ry="20"/><text class="cls-13" transform="translate(1046.05 586.89)">GO</text><path class="cls-1" d="M980.24,563.89a17,17,0,0,1,0,34h-160a17,17,0,0,1,0-34h160m0-3h-160a20,20,0,0,0,0,40h160a20,20,0,0,0,0-40h0Z"/><text class="cls-14" transform="translate(820.24 586.89)">Sea<tspan x="29.32" y="0">r</tspan><tspan x="36.02" y="0">ch</tspan></text><path class="cls-1" d="M969.59,574.29a4.53,4.53,0,1,1-3.2,1.33,4.5,4.5,0,0,1,3.2-1.33m0-3a7.53,7.53,0,1,0,5.32,2.2,7.5,7.5,0,0,0-5.32-2.2h0Z"/><line class="Graphic-Style-2" x1="974.14" y1="583.35" x2="980.24" y2="589.45"/></g><g id="Switches"><rect class="cls-1" x="540.24" y="560.89" width="80" height="40" rx="20" ry="20"/><text class="cls-13" transform="translate(577.73 586.89)">OFF</text><circle class="cls-8" cx="560.24" cy="580.89" r="13.29"/><rect class="cls-6" x="640.24" y="560.89" width="80" height="40" rx="20" ry="20"/><circle class="cls-8" cx="700.24" cy="580.89" r="13.29"/><text class="cls-13" transform="translate(651.23 586.89)">ON</text></g><g id="Radio_Buttons" data-name="Radio Buttons"><path class="cls-1" d="M175.24,568.89a12,12,0,1,1-12,12,12,12,0,0,1,12-12m0-3a15,15,0,1,0,15,15,15,15,0,0,0-15-15h0Z"/><circle class="cls-1" cx="175.24" cy="580.89" r="8.75"/><path class="cls-1" d="M235.24,568.89a12,12,0,1,1-12,12,12,12,0,0,1,12-12m0-3a15,15,0,1,0,15,15,15,15,0,0,0-15-15h0Z"/><circle class="cls-7" cx="235.24" cy="580.89" r="8.75"/><path class="cls-1" d="M115.24,568.89a12,12,0,1,1-12,12,12,12,0,0,1,12-12m0-3h0a15,15,0,0,0,0,30h0a15,15,0,0,0,0-30h0Z"/></g><g id="Checkboxes"><path class="cls-1" d="M344.24,568.89a3,3,0,0,1,3,3v18a3,3,0,0,1-3,3h-18a3,3,0,0,1-3-3v-18a3,3,0,0,1,3-3h18m0-3h-18a6,6,0,0,0-6,6v18a6,6,0,0,0,6,6h18a6,6,0,0,0,6-6v-18a6,6,0,0,0-6-6h0Z"/><path class="cls-1" d="M404.24,568.89a3,3,0,0,1,3,3v18a3,3,0,0,1-3,3h-18a3,3,0,0,1-3-3v-18a3,3,0,0,1,3-3h18m0-3h-18a6,6,0,0,0-6,6v18a6,6,0,0,0,6,6h18a6,6,0,0,0,6-6v-18a6,6,0,0,0-6-6h0Z"/><rect class="cls-1" x="386.49" y="572.14" width="17.5" height="17.5" rx="2" ry="2"/><path class="cls-1" d="M464.24,568.89a3,3,0,0,1,3,3v18a3,3,0,0,1-3,3h-18a3,3,0,0,1-3-3v-18a3,3,0,0,1,3-3h18m0-3h-18a6,6,0,0,0-6,6v18a6,6,0,0,0,6,6h18a6,6,0,0,0,6-6v-18a6,6,0,0,0-6-6h0Z"/><rect class="cls-7" x="446.49" y="572.14" width="17.5" height="17.5" rx="2" ry="2"/></g><g id="Sliders_and_Ranges" data-name="Sliders and Ranges"><line class="cls-15" x1="100.24" y1="510.89" x2="300.24" y2="510.89"/><circle class="cls-1" cx="250.24" cy="510.89" r="10"/><line class="cls-15" x1="560.24" y1="510.89" x2="760.24" y2="510.89"/><line class="cls-16" x1="560.24" y1="510.89" x2="700.24" y2="510.89"/><circle class="cls-7" cx="710.24" cy="510.89" r="10"/><line class="cls-15" x1="1020.24" y1="510.89" x2="1220.24" y2="510.89"/><line class="cls-17" x1="1020.24" y1="510.89" x2="1160.24" y2="510.89"/><circle class="cls-7" cx="1170.24" cy="510.89" r="10"/><line class="cls-15" x1="320.24" y1="510.89" x2="520.24" y2="510.89"/><circle class="cls-1" cx="470.24" cy="510.89" r="10"/><circle class="cls-1" cx="370.24" cy="510.89" r="10"/><line class="cls-15" x1="780.24" y1="510.89" x2="980.24" y2="510.89"/><line class="cls-16" x1="840.24" y1="510.89" x2="920.24" y2="510.89"/><circle class="cls-7" cx="930.24" cy="510.89" r="10"/><circle class="cls-7" cx="830.24" cy="510.89" r="10"/><line class="cls-15" x1="1240.24" y1="510.89" x2="1440.24" y2="510.89"/><line class="cls-17" x1="1300.24" y1="510.89" x2="1380.24" y2="510.89"/><circle class="cls-7" cx="1390.24" cy="510.89" r="10"/><circle class="cls-7" cx="1290.24" cy="510.89" r="10"/></g><g id="Alerts"><rect class="cls-18" x="100.24" y="420.89" width="184.33" height="40" rx="20" ry="20"/><text class="cls-13" transform="translate(154.24 446.65)">It exploded!</text><rect class="cls-8" x="115.01" y="440.15" width="14.17" height="3.2" transform="translate(348.12 43.05) rotate(45)"/><rect class="cls-8" x="115.01" y="440.15" width="14.17" height="3.2" transform="translate(-276.6 215.72) rotate(-45)"/><line class="cls-19" x1="140.24" y1="420.89" x2="140.24" y2="460.89"/><rect class="cls-6" x="624.57" y="420.89" width="300" height="40" rx="20" ry="20"/><text class="cls-5" transform="translate(678.57 446.65)">It’s olde<tspan x="65.12" y="0">r</tspan><tspan x="71.24" y="0">, but checks out.</tspan></text><rect class="cls-8" x="638.98" y="440.76" width="8" height="3.2" transform="translate(501.12 -325.09) rotate(45)"/><rect class="cls-8" x="644.08" y="437.16" width="11.79" height="3.2" transform="translate(-119.87 588.11) rotate(-45)"/><line class="cls-19" x1="664.57" y1="420.89" x2="664.57" y2="460.89"/><rect class="cls-1" x="944.57" y="420.89" width="280" height="40" rx="20" ry="20"/><text class="cls-13" transform="translate(998.57 446.65)"><tspan class="cls-20">T</tspan><tspan x="9.22" y="0">ask finished in </tspan><tspan x="131.06" y="0">.</tspan><tspan x="135.32" y="0">00413μs.</tspan></text><rect class="cls-8" x="962.61" y="441.29" width="7.92" height="3.2" transform="translate(523.68 1409.46) rotate(-90)"/><rect class="cls-8" x="964.97" y="433.02" width="3.2" height="3.2"/><line class="cls-19" x1="984.57" y1="420.89" x2="984.57" y2="460.89"/><rect class="cls-21" x="304.57" y="420.89" width="300" height="40" rx="20" ry="20"/><text class="cls-5" transform="translate(358.57 446.65)">Th<tspan x="21.53" y="0">a</tspan><tspan x="30.98" y="0">t c</tspan><tspan x="51.89" y="0">a</tspan><tspan x="61.34" y="0">t is w</tspan><tspan x="104.24" y="0">a</tspan><tspan x="113.69" y="0">tching you.</tspan></text><line class="cls-19" x1="344.57" y1="420.89" x2="344.57" y2="460.89"/><path class="cls-8" d="M329.89,440.89l-3.46-6-6.93,12h13.86Z"/><rect class="cls-21" x="324.65" y="440.2" width="3.56" height="1.44" transform="translate(767.35 114.5) rotate(90)"/><rect class="cls-21" x="325.71" y="443.92" width="1.44" height="1.44" transform="translate(652.85 889.29) rotate(180)"/><path class="cls-18" d="M380.24,364.25a17,17,0,0,1,0,34h-260a17,17,0,1,1,0-34h260m0-3h-260a20,20,0,0,0-20,20h0a20,20,0,0,0,20,20h260a20,20,0,0,0,20-20h0a20,20,0,0,0-20-20h0Z"/><text class="cls-22" transform="translate(154.24 387.01)">Google doesn’t know yet.</text><rect class="cls-18" x="115.01" y="379.65" width="14.17" height="3.2" transform="translate(305.34 25.33) rotate(45)"/><rect class="cls-18" x="115.01" y="379.65" width="14.17" height="3.2" transform="translate(-233.82 198) rotate(-45)"/><line class="cls-23" x1="140.24" y1="361.25" x2="140.24" y2="401.25"/><path class="cls-6" d="M961.74,363.89a17,17,0,1,1,0,34h-200a17,17,0,1,1,0-34h200m0-3h-200a20,20,0,0,0-20,20h0a20,20,0,0,0,20,20h200a20,20,0,0,0,20-20h0a20,20,0,0,0-20-20h0Z"/><text class="cls-24" transform="translate(795.74 386.65)">E<tspan x="10.12" y="0">ve</tspan><tspan x="29.14" y="0">r</tspan><tspan x="36.02" y="0">yone li</tspan><tspan x="91.15" y="0">k</tspan><tspan x="100.47" y="0">es you.</tspan></text><rect class="cls-6" x="756.14" y="380.76" width="8" height="3.2" transform="translate(493.01 -425.51) rotate(45)"/><rect class="cls-6" x="761.25" y="377.16" width="11.79" height="3.2" transform="translate(-43.13 653.39) rotate(-45)"/><line class="cls-25" x1="781.74" y1="360.89" x2="781.74" y2="400.89"/><path class="cls-1" d="M1240.24,363.89a17,17,0,0,1,0,34h-218.5a17,17,0,1,1,0-34h218.5m0-3h-218.5a20,20,0,0,0-20,20h0a20,20,0,0,0,20,20h218.5a20,20,0,0,0,20-20h0a20,20,0,0,0-20-20h0Z"/><text class="cls-14" transform="translate(1055.74 386.65)">This moment is gone.</text><rect class="cls-1" x="1019.38" y="381.29" width="7.92" height="3.2" transform="translate(640.45 1406.22) rotate(-90)"/><rect class="cls-1" x="1021.74" y="373.02" width="3.2" height="3.2"/><line class="Graphic-Style-2" x1="1041.74" y1="360.89" x2="1041.74" y2="400.89"/><path class="cls-21" d="M700.24,363.89a17,17,0,1,1,0,34h-260a17,17,0,1,1,0-34h260m0-3h-260a20,20,0,0,0-20,20h0a20,20,0,0,0,20,20h260a20,20,0,0,0,20-20h0a20,20,0,0,0-20-20h0Z"/><text class="cls-26" transform="translate(474.24 386.65)">It’s dange<tspan x="80.15" y="0">r</tspan><tspan x="86.85" y="0">ous to go alone!</tspan></text><line class="cls-27" x1="460.24" y1="360.89" x2="460.24" y2="400.89"/><path class="cls-21" d="M445.56,380.89l-3.46-6-6.93,12H449Z"/><rect class="cls-8" x="440.31" y="380.2" width="3.56" height="1.44" transform="translate(823.02 -61.17) rotate(90)"/><rect class="cls-8" x="441.37" y="383.92" width="1.44" height="1.44" transform="translate(884.19 769.29) rotate(180)"/></g><g id="Tags"><rect class="cls-6" x="350.24" y="290.89" width="90" height="30" rx="6" ry="6"/><text class="cls-5" transform="translate(360.24 311.89)">#enjoy</text><rect class="cls-7" x="460.24" y="290.89" width="120" height="30" rx="6" ry="6"/><text class="cls-13" transform="translate(470.24 311.89)">#sha<tspan x="41.35" y="0">r</tspan><tspan x="48.04" y="0">eali</tspan><tspan x="76.79" y="0">k</tspan><tspan x="86.11" y="0">e</tspan></text><rect class="cls-21" x="220.24" y="290.89" width="110" height="30" rx="6" ry="6"/><text class="cls-13" transform="translate(230.24 311.89)">#copyleft</text><rect class="cls-18" x="100.24" y="290.89" width="100" height="30" rx="6" ry="6"/><text class="cls-13" transform="translate(110.24 311.89)">#ohnoes</text><rect class="cls-1" x="600.24" y="290.89" width="120" height="30" rx="6" ry="6"/><text class="cls-13" transform="translate(610.24 311.89)">#followme</text><path class="cls-6" d="M514.24,243.17a3,3,0,0,1,3,3v18a3,3,0,0,1-3,3h-108a3,3,0,0,1-3-3v-18a3,3,0,0,1,3-3h108m0-3h-108a6,6,0,0,0-6,6v18a6,6,0,0,0,6,6h108a6,6,0,0,0,6-6v-18a6,6,0,0,0-6-6h0Z"/><text class="cls-24" transform="translate(410.24 261.17)">#brightside</text><path class="cls-7" d="M644.24,243.17a3,3,0,0,1,3,3v18a3,3,0,0,1-3,3h-98a3,3,0,0,1-3-3v-18a3,3,0,0,1,3-3h98m0-3h-98a6,6,0,0,0-6,6v18a6,6,0,0,0,6,6h98a6,6,0,0,0,6-6v-18a6,6,0,0,0-6-6h0Z"/><text class="cls-5" transform="translate(550.24 261.17)">#cestlavie</text><path class="cls-21" d="M374.24,243.17a3,3,0,0,1,3,3v18a3,3,0,0,1-3,3h-108a3,3,0,0,1-3-3v-18a3,3,0,0,1,3-3h108m0-3h-108a6,6,0,0,0-6,6v18a6,6,0,0,0,6,6h108a6,6,0,0,0,6-6v-18a6,6,0,0,0-6-6h0Z"/><text class="cls-26" transform="translate(270.24 261.17)">#awkward</text><path class="cls-18" d="M234.24,243.17a3,3,0,0,1,3,3v18a3,3,0,0,1-3,3h-128a3,3,0,0,1-3-3v-18a3,3,0,0,1,3-3h128m0-3h-128a6,6,0,0,0-6,6v18a6,6,0,0,0,6,6h128a6,6,0,0,0,6-6v-18a6,6,0,0,0-6-6h0Z"/><text class="cls-22" transform="translate(110.24 261.17)">#danger<tspan x="71.51" y="0">z</tspan><tspan x="80.75" y="0">one</tspan></text><path class="cls-1" d="M754.24,243.17a3,3,0,0,1,3,3v18a3,3,0,0,1-3,3h-78a3,3,0,0,1-3-3v-18a3,3,0,0,1,3-3h78m0-3h-78a6,6,0,0,0-6,6v18a6,6,0,0,0,6,6h78a6,6,0,0,0,6-6v-18a6,6,0,0,0-6-6h0Z"/><text class="cls-14" transform="translate(680.24 261.17)">#subtle</text></g><g id="Buttons"><rect class="cls-1" x="820.24" y="160.89" width="160" height="40" rx="20" ry="20"/><text class="cls-13" transform="translate(870.28 186.89)">Inverse</text><rect class="cls-7" x="640.24" y="160.89" width="160" height="40" rx="20" ry="20"/><text class="cls-13" transform="translate(689.82 186.89)">Default</text><rect class="cls-6" x="460.24" y="160.89" width="160" height="40" rx="20" ry="20"/><text class="cls-5" transform="translate(508.15 186.89)">Prima<tspan x="48.11" y="0">r</tspan><tspan x="54.99" y="0">y</tspan></text><rect class="cls-21" x="280.24" y="160.89" width="160" height="40" rx="20" ry="20"/><text class="cls-5" transform="translate(325.29 186.89)">W<tspan x="16.78" y="0">arning</tspan></text><rect class="cls-28" x="100.24" y="160.89" width="160" height="40" rx="20" ry="20"/><rect class="cls-18" x="100.24" y="160.89" width="160" height="40" rx="20" ry="20"/><text class="cls-13" transform="translate(160.61 186.89)">Alert</text><path class="cls-1" d="M960.24,103.89a17,17,0,1,1,0,34h-120a17,17,0,1,1,0-34h120m0-3h-120a20,20,0,0,0-20,20h0a20,20,0,0,0,20,20h120a20,20,0,0,0,20-20h0a20,20,0,0,0-20-20h0Z"/><text class="cls-14" transform="translate(870.28 126.89)">Inverse</text><path class="cls-7" d="M780.24,103.89a17,17,0,1,1,0,34h-120a17,17,0,1,1,0-34h120m0-3h-120a20,20,0,0,0-20,20h0a20,20,0,0,0,20,20h120a20,20,0,0,0,20-20h0a20,20,0,0,0-20-20h0Z"/><text class="cls-5" transform="translate(689.82 126.89)">Default</text><path class="cls-21" d="M420.24,103.89a17,17,0,1,1,0,34h-120a17,17,0,0,1,0-34h120m0-3h-120a20,20,0,0,0-20,20h0a20,20,0,0,0,20,20h120a20,20,0,0,0,20-20h0a20,20,0,0,0-20-20h0Z"/><text class="cls-26" transform="translate(325.29 126.89)">W<tspan x="16.78" y="0">arning</tspan></text><path class="cls-6" d="M600.24,103.89a17,17,0,1,1,0,34h-120a17,17,0,1,1,0-34h120m0-3h-120a20,20,0,0,0-20,20h0a20,20,0,0,0,20,20h120a20,20,0,0,0,20-20h0a20,20,0,0,0-20-20h0Z"/><text class="cls-24" transform="translate(508.15 126.89)">Prima<tspan x="48.11" y="0">r</tspan><tspan x="54.99" y="0">y</tspan></text><path class="cls-18" d="M240.24,103.89a17,17,0,0,1,0,34h-120a17,17,0,0,1,0-34h120m0-3h-120a20,20,0,0,0-20,20h0a20,20,0,0,0,20,20h120a20,20,0,0,0,20-20h0a20,20,0,0,0-20-20h0Z"/><text class="cls-22" transform="translate(160.61 126.89)">Alert</text></g></svg>